<svg width="670" height="272" viewBox="0 0 670 272" fill="none" xmlns="http://www.w3.org/2000/svg">
<path fill-rule="evenodd" clip-rule="evenodd" d="M17.3444 210.969C63.1738 182.215 75.6625 238.067 25.3507 236.898C31.8143 266.625 79.1053 261.885 79.8524 219.071L183.854 75.6596C210.975 108.797 251.039 83.2092 237.673 55.8843C198.908 87.9663 174.077 36.4013 227.881 30.5727C210.796 -3.21408 171.3 20.0356 175.23 50.7701L70.5468 193.158V193.174C54.0307 167.814 9.90645 174.341 17.3444 210.969Z" fill="url(#paint0_linear_8_90)" stroke="#9E38FE" stroke-width="2.66376" stroke-miterlimit="2.61313" stroke-linecap="square" stroke-linejoin="round"/>
<path d="M89.4828 221.798L182.993 92.7071M164.025 51.4844C162.303 29.4524 172.421 9.59594 190.334 3.37762C212.647 -4.36687 238.599 11.9988 248.294 39.9407C258.006 67.8826 247.775 96.7986 225.477 104.543C211.056 109.544 195.092 104.478 183.009 92.7071M164.041 51.4681L69.6374 178.514C57.6522 167.295 42.078 162.537 27.9654 167.441C5.66779 175.185 -4.56345 204.101 5.14811 232.043C14.8434 259.985 40.795 276.351 63.1089 268.606C80.6644 262.501 90.7332 243.294 89.499 221.782" stroke="#9E38FE" stroke-width="1.33188" stroke-miterlimit="2.61313" stroke-linecap="round" stroke-linejoin="round"/>
<path d="M298.119 246.98C298.119 247.694 297.534 248.75 296.381 250.049C284.558 263.719 269.926 270.538 252.468 270.538C234.295 270.538 219.712 263.898 208.831 250.666C198.632 238.294 193.549 222.886 193.549 204.345C193.549 185.836 198.73 170.331 209.123 157.862C220.167 144.435 234.734 137.713 252.89 137.713C271.274 137.713 285.484 143.915 295.569 156.319C296.527 157.586 297.031 158.673 297.031 159.518C297.031 160.54 295.423 163.577 292.191 168.626C288.959 173.675 287.011 176.224 286.329 176.224C285.549 176.224 283.698 174.731 280.774 171.759C277.202 168.139 273.824 165.411 270.657 163.577C265.444 160.605 259.679 159.112 253.377 159.112C241.376 159.112 232.038 163.674 225.38 172.815C219.419 180.998 216.448 191.291 216.448 203.728C216.448 216.132 219.387 226.523 225.282 234.884C231.957 244.285 241.262 248.961 253.199 248.961C259.159 248.961 264.892 247.467 270.413 244.528C274.035 242.613 277.77 239.852 281.521 236.281C284.688 233.342 286.393 231.848 286.702 231.848C287.076 231.848 289.057 234.235 292.695 239.041C296.316 243.847 298.151 246.477 298.151 246.98H298.119ZM330.843 141.967L330.745 143.152C329.446 165.671 328.796 185.008 328.796 201.195C328.796 208.387 328.926 219.184 329.17 233.569C329.413 247.954 329.511 258.719 329.511 265.879C329.511 267.275 329.04 267.957 328.082 267.957H310.721C309.633 267.957 309.081 267.275 309.081 265.879C309.081 258.719 309.146 247.954 309.259 233.569C309.389 219.184 309.438 208.387 309.438 201.195C309.438 194.652 309.13 184.829 308.512 171.711C307.895 158.592 307.587 148.834 307.587 142.34C307.587 141.139 308.204 140.505 309.471 140.505C310.559 140.505 312.199 140.603 314.375 140.781C316.551 140.96 318.159 141.057 319.28 141.057C320.4 141.057 322.105 140.96 324.33 140.781C326.571 140.603 328.212 140.505 329.3 140.505C330.388 140.505 330.908 141.009 330.843 141.967ZM433.041 185.527C433.041 189.96 432.863 196.633 432.489 205.595C432.116 214.525 431.937 221.23 431.937 225.711C431.937 230.111 432.067 236.751 432.343 245.551C432.619 254.351 432.749 260.992 432.749 265.391C432.749 266.593 432.197 267.405 431.044 267.746C430.54 267.876 424.369 267.924 412.53 267.924C411.815 267.924 411.377 265.667 411.231 261.105C411.068 256.575 410.727 254.286 410.175 254.286C409.867 254.286 409.428 254.562 408.811 255.13C398.694 263.898 388.738 268.314 378.881 268.314C365.515 268.314 356.68 263.476 352.393 253.767C349.73 247.776 348.398 236.995 348.398 221.425C348.398 207.381 349.519 195.48 351.743 185.706C352.263 183.352 353.27 182.167 354.715 182.167C356.486 182.167 359.117 182.199 362.657 182.264C366.165 182.329 368.796 182.361 370.566 182.361C371.768 182.361 372.401 183.011 372.401 184.342C372.401 186.696 371.995 190.642 371.215 196.162C370.371 202.055 369.949 206.179 369.884 208.599C369.705 212.252 369.608 216.262 369.608 220.597C369.608 231.199 370.355 238.294 371.865 241.963C374.463 248.506 380.245 251.753 389.177 251.753C392.993 251.753 397.492 249.87 402.705 246.103C408.161 242.158 410.987 238.375 411.198 234.754C411.507 230.225 411.669 214.232 411.669 186.794C411.669 183.855 412.904 182.361 415.388 182.361H430.427C432.197 182.361 433.058 183.417 433.058 185.527H433.041ZM502.24 251.315C502.24 252.646 502.11 254.449 501.867 256.738C501.591 259.563 501.396 261.381 501.331 262.225C501.266 263.313 501.168 263.963 501.055 264.206C500.811 264.645 500.243 265.05 499.349 265.473C494.38 267.859 486.601 269.045 475.964 269.045C461.916 269.045 454.835 262.631 454.787 249.789C454.787 244.642 454.884 236.93 455.063 226.604C455.241 216.278 455.339 208.534 455.339 203.387C455.339 200.903 454.105 199.571 451.62 199.393C449.363 199.393 447.154 199.36 444.978 199.295C443.711 198.987 443.061 196.503 443.061 191.827C443.061 190.09 443.191 188.223 443.435 186.274C443.63 184.813 444.588 183.953 446.358 183.644C447.852 183.644 449.33 183.612 450.792 183.547C453.585 183.417 454.982 182.183 454.982 179.829C454.982 177.409 454.917 173.724 454.803 168.723C454.673 163.755 454.608 160.037 454.608 157.553C454.608 153.121 455.453 150.913 457.158 150.913C457.677 150.913 463.361 151.838 474.129 153.705C475.525 153.884 476.207 154.549 476.207 155.686C476.207 158.381 475.996 162.391 475.558 167.717C475.119 173.042 474.908 177.052 474.908 179.715C474.908 181.485 475.753 182.345 477.393 182.345H499.317C500.34 182.345 500.86 182.719 500.86 183.433C500.86 184.147 500.73 185.316 500.519 186.94C500.308 188.515 500.21 189.732 500.21 190.512C500.21 191.405 500.243 192.801 500.308 194.701C500.373 196.568 500.405 197.964 500.405 198.857C500.405 200.01 499.561 200.594 497.855 200.594C495.403 200.594 491.749 200.432 486.812 200.123C481.908 199.815 478.254 199.653 475.801 199.653C475.33 199.653 474.957 201.39 474.713 204.832C474.583 209.134 474.535 215.158 474.535 222.935V236.492C474.535 241.703 475.038 245.324 475.996 247.37C477.425 250.536 480.397 252.111 484.928 252.111C486.796 252.111 489.524 251.705 493.146 250.909C496.751 250.097 499.447 249.708 501.185 249.708C501.899 249.708 502.273 250.227 502.273 251.315H502.24ZM578.682 185.527C578.682 186.859 578 189.83 576.603 194.425C575.207 199.052 574.216 201.341 573.68 201.341C570.952 200.14 568.191 198.954 565.43 197.737C562.669 196.535 559.665 195.935 556.401 195.935C548.93 195.935 542.727 198.695 537.725 204.182C532.755 209.703 530.287 216.213 530.287 223.682C530.287 231.069 532.771 237.45 537.725 242.84C542.808 248.393 549.044 251.185 556.368 251.185C560.428 251.185 564.44 250.195 568.37 248.214C572.3 246.233 574.038 245.243 573.55 245.243C574.33 245.243 575.223 247.792 576.181 252.874C577.074 257.468 577.545 260.618 577.545 262.388C577.545 264.255 574.005 266.073 566.908 267.908C560.948 269.434 556.579 270.165 553.721 270.165C541.216 270.165 530.677 265.521 522.086 256.186C513.657 247.094 509.435 236.248 509.435 223.665C509.435 210.823 513.559 199.912 521.809 190.95C530.303 181.744 540.875 177.15 553.543 177.15C562.036 177.15 569.831 179.293 576.831 183.595C578.033 184.342 578.666 184.959 578.666 185.511L578.682 185.527ZM669.269 264.742C669.269 266.999 668.62 268.119 667.353 268.119C665.485 268.119 662.643 268.087 658.794 268.022C654.978 267.957 652.12 267.924 650.268 267.924C648.742 267.924 647.978 266.934 647.978 264.921C647.978 262.014 648.108 257.631 648.32 251.737C648.531 245.876 648.628 241.444 648.628 238.472C648.628 235.68 648.531 231.459 648.32 225.792C648.108 220.142 647.978 215.872 647.978 213.047C647.978 202.137 642.863 196.681 632.567 196.681C629.221 196.681 624.869 198.354 619.477 201.666C613.744 205.238 610.854 208.517 610.854 211.488V265.473C610.854 267.21 610.237 268.103 608.97 268.103C607.086 268.103 604.293 268.07 600.541 268.005C596.79 267.94 593.997 267.908 592.113 267.908C590.716 267.908 590.034 267.096 590.034 265.456V221.587C590.034 214.46 589.628 199.23 588.832 176.013C588.702 168.788 588.183 158.121 587.257 144.012C587.127 143.298 587.078 142.811 587.078 142.551C587.078 141.528 587.452 140.911 588.166 140.668C589.189 140.327 592.632 140.148 598.43 140.148C599.697 140.148 601.629 139.937 604.163 139.466C606.712 139.028 608.564 138.817 609.717 138.817C610.496 138.817 610.902 139.401 610.902 140.554C610.902 146.22 610.691 154.809 610.253 166.223C609.814 177.637 609.636 186.226 609.636 191.892C609.636 193.288 609.847 194.035 610.35 194.1C613.452 191.47 617.415 188.304 622.319 184.586C628.247 180.868 634.515 179.001 641.109 179.001C652.461 179.001 660.305 182.378 664.625 189.164C667.694 194.132 669.253 202.007 669.253 212.787C669.253 214.654 669.188 217.561 669.091 221.474C668.993 225.386 668.961 228.26 668.961 230.127C668.961 234.008 669.026 239.804 669.139 247.483C669.269 255.179 669.334 260.91 669.334 264.726L669.269 264.742Z" fill="url(#paint1_linear_8_90)" stroke="#4B248C" stroke-width="0.669618" stroke-miterlimit="2.61313"/>
<defs>
<linearGradient id="paint0_linear_8_90" x1="4.48226" y1="177.426" x2="250.424" y2="92.0018" gradientUnits="userSpaceOnUse">
<stop stop-color="#9539FF"/>
<stop offset="1" stop-color="#DC31F7"/>
</linearGradient>
<linearGradient id="paint1_linear_8_90" x1="193.549" y1="204.134" x2="669.269" y2="204.134" gradientUnits="userSpaceOnUse">
<stop stop-color="#903AFF"/>
<stop offset="0.490196" stop-color="#D831FF"/>
<stop offset="1" stop-color="#FF34B9"/>
</linearGradient>
</defs>
</svg>
